<svg width="180" height="180" viewBox="0 0 180 180" fill="none" xmlns="http://www.w3.org/2000/svg">
  <g clip-path="url(#clip0_shield)">
    <!-- Removed background rect - we want fully transparent -->
    <g transform="translate(90, 90) scale(6.5)">
      <!-- Shield path - filled black with white outline -->
      <path d="M20 13c0 5-3.5 7.5-7.66 8.95a1 1 0 0 1-.67-.01C7.5 20.5 4 18 4 13V6a1 1 0 0 1 1-1c2 0 4.5-1.2 6.24-2.72a1.17 1.17 0 0 1 1.52 0C14.51 3.81 17 5 19 5a1 1 0 0 1 1 1z" fill="#000000" stroke="#FFFFFF" stroke-width="2" stroke-linecap="round" stroke-linejoin="round" transform="translate(-12, -12)"/>
      <!-- Checkmark - white stroke to contrast with black shield -->
      <path d="m9 12 2 2 4-4" fill="none" stroke="#FFFFFF" stroke-width="2" stroke-linecap="round" stroke-linejoin="round" transform="translate(-12, -12)"/>
    </g>
  </g>
  <defs>
    <clipPath id="clip0_shield">
      <rect width="180" height="180" rx="37" />
    </clipPath>
  </defs>
</svg>
